<svg xmlns="http://www.w3.org/2000/svg" viewBox="558.317 -43.032 751.72 749.714">
  <path style="fill: #000000; stroke: rgb(0, 0, 0);" d="M 727.057 451.597 L 844.586 170.267 L 783.508 487.689 L 976.922 138.802 L 888.081 416.431 L 1040.776 223.942 L 937.129 452.522 L 1046.329 347.949 L 974.146 498.794 L 1110.183 368.308 L 976.922 594.113 L 1154.604 455.299 L 997.281 680.178 L 1093.526 640.384 C 1096.264 642.339 1197.315 572.003 1184.218 562.648 L 1222.16 459.926 C 1224.459 458.393 1202.071 383.552 1197.174 386.817 C 1209.701 392.663 1163.525 340.513 1139.797 329.44 L 1129.617 317.41 L 1161.082 275.766 C 1168.64 277.656 1187.857 184.364 1175.889 181.372 C 1187.707 181.372 1150.106 142.164 1155.529 140.653 C 1160.952 139.142 1101.128 90.678 1093.526 91.605 L 1024.119 74.022 C 1021.651 67.852 961.498 68.778 963.966 74.948 C 960.61 71.592 913.517 100.384 914.918 101.785 L 888.081 81.426 C 900.42 75.256 849.521 47.493 837.182 53.663 C 834.544 49.706 780.29 65.032 782.582 68.47 L 730.758 115.666 L 710.399 170.267 C 707.537 167.405 695.398 251.51 697.443 253.555 L 700.219 347.949 C 692.816 356.586 719.654 460.234 727.057 451.597 Z"></path>
</svg>