<svg xmlns="http://www.w3.org/2000/svg" viewBox="0 0 500 500">
  <path style="fill: #000000; stroke: rgb(0, 0, 0);" d="M 378.582 47.867 L 275.014 223.799 L 268.375 237.741 L 283.645 235.75 L 398.499 180.646 L 475.51 144.132 L 456.921 176.663 L 427.71 211.185 L 346.051 290.189 C 346.051 290.189 301.57 323.384 300.906 323.384 C 300.242 323.384 236.509 362.553 236.509 362.553 L 186.717 387.118 L 130.949 411.682 C 130.949 411.682 88.46 423.632 87.796 423.632 C 87.132 423.632 59.913 432.926 59.913 432.926 L 51.282 425.623 L 61.904 380.479 L 108.377 296.164 L 155.514 233.094 L 203.978 177.991 L 246.467 136.165 L 318.831 84.381 L 378.582 47.867 Z"></path>
</svg>