<svg xmlns="http://www.w3.org/2000/svg" viewBox="0 0 500 500">
  <path style="fill: rgb(216, 216, 216); stroke: rgb(0, 0, 0);" d="M 294.268 158.839 L 251.779 189.378 C 249.777 188.377 213.075 221.811 214.6 222.573 C 211.316 220.383 187.42 249.154 189.373 250.456 L 169.456 274.357 L 161.489 292.946 L 152.194 320.165 L 148.875 358.007 L 157.506 383.899 L 176.759 402.488 L 201.987 412.447 L 230.534 413.774 L 257.09 403.816 L 274.351 390.538 L 290.948 369.293 L 298.251 359.999 L 306.882 373.941 L 322.151 393.858 L 342.068 408.463 L 365.304 415.102 L 389.868 413.111 L 416.424 397.841 L 439.661 368.63 L 442.316 326.14 L 421.735 271.701 L 403.81 249.792 L 389.868 233.859 L 362.649 207.303 L 338.085 190.706 L 315.512 172.781 L 294.268 158.839 Z"></path>
</svg>