<svg xmlns="http://www.w3.org/2000/svg" viewBox="0 0 500 500">
  <path style="fill: #00000; stroke: rgb(0, 0, 0);" d="M 201.689 126.113 L 237.241 109.478 C 238.876 106.578 304.918 121.687 301.434 127.864 L 335.011 162.009 L 349.824 217.167 C 354.361 218.172 338.006 311.293 332.049 309.972 L 296.496 363.379 L 258.967 395.773 L 213.54 419.412 L 178.975 430.793 C 177.402 429.399 239.664 372.352 245.142 361.627 C 250.62 350.902 259.057 285.532 255.018 289.835 L 259.956 254.815 C 263.398 258.132 243.849 238.836 231.315 237.303 C 216.662 235.512 185.887 210.002 185.887 207.536 C 176.816 209.547 168.047 148.015 179.961 145.374 C 179.961 145.374 198.725 124.362 201.689 126.113 Z"></path>
</svg>