<svg
    version="1.0"
    xmlns="http://www.w3.org/2000/svg"
    xmlns:xlink="http://www.w3.org/1999/xlink"
    width="512"
    height="512"
    viewBox="0 0 512 512"
  >
    <svg id="global-svg-defs" version="1.0" xmlns="http://www.w3.org/2000/svg" width="0" height="0" viewBox="0 0 340.000000 250.000000" preserveAspectRatio="xMidYMid meet" color-interpolation-filters="sRGB" class="el-tooltip" style="margin: auto;" xmlns:xlink="http://www.w3.org/1999/xlink">
    <defs>
      <pattern id="watermark" patternUnits="userSpaceOnUse" width="100%" height="100%">
        <image xlink:href="https://www.logosc.cn/img/watermark/LOGOSC-watermark.png" x="0" y="0" width="100%" height="100%">
        </image>
      </pattern>
                    <linearGradient id="92" x1="0%" y1="0%" x2="100%" y2="0%">
          <stop offset="0%" stop-color="#fa71cd"></stop>
          <stop offset="100%" stop-color="#9b59b6"></stop>
        </linearGradient>
              <linearGradient id="93" x1="0%" y1="0%" x2="100%" y2="0%">
          <stop offset="0%" stop-color="#f9d423"></stop>
          <stop offset="100%" stop-color="#f83600"></stop>
        </linearGradient>
              <linearGradient id="94" x1="0%" y1="0%" x2="100%" y2="0%">
          <stop offset="0%" stop-color="#0064d2"></stop>
          <stop offset="100%" stop-color="#1cb0f6"></stop>
        </linearGradient>
              <linearGradient id="95" x1="0%" y1="0%" x2="100%" y2="0%">
          <stop offset="0%" stop-color="#f00978"></stop>
          <stop offset="100%" stop-color="#3f51b1"></stop>
        </linearGradient>
              <linearGradient id="96" x1="0%" y1="0%" x2="100%" y2="0%">
          <stop offset="0%" stop-color="#7873f5"></stop>
          <stop offset="100%" stop-color="#ec77ab"></stop>
        </linearGradient>
              <linearGradient id="97" x1="0%" y1="0%" x2="100%" y2="0%">
          <stop offset="0%" stop-color="#f9d423"></stop>
          <stop offset="100%" stop-color="#e14fad"></stop>
        </linearGradient>
              <linearGradient id="98" x1="0%" y1="0%" x2="100%" y2="0%">
          <stop offset="0%" stop-color="#009efd"></stop>
          <stop offset="100%" stop-color="#2af598"></stop>
        </linearGradient>
              <linearGradient id="99" x1="0%" y1="0%" x2="100%" y2="0%">
          <stop offset="0%" stop-color="#ffcc00"></stop>
          <stop offset="100%" stop-color="#00b140"></stop>
        </linearGradient>
              <linearGradient id="100" x1="0%" y1="0%" x2="100%" y2="0%">
          <stop offset="0%" stop-color="#d51007"></stop>
          <stop offset="100%" stop-color="#ff8177"></stop>
        </linearGradient>
              <linearGradient id="102" x1="0%" y1="0%" x2="100%" y2="0%">
          <stop offset="0%" stop-color="#a2b6df"></stop>
          <stop offset="100%" stop-color="#0c3483"></stop>
        </linearGradient>
              <linearGradient id="103" x1="0%" y1="0%" x2="100%" y2="0%">
          <stop offset="0%" stop-color="#7ac5d8"></stop>
          <stop offset="100%" stop-color="#eea2a2"></stop>
        </linearGradient>
              <linearGradient id="104" x1="0%" y1="0%" x2="100%" y2="0%">
          <stop offset="0%" stop-color="#00ecbc"></stop>
          <stop offset="100%" stop-color="#007adf"></stop>
        </linearGradient>
              <linearGradient id="105" x1="0%" y1="0%" x2="100%" y2="0%">
          <stop offset="0%" stop-color="#b88746"></stop>
          <stop offset="100%" stop-color="#fdf5a6"></stop>
        </linearGradient>
              <linearGradient id="107" x1="0%" y1="0%" x2="100%" y2="0%">
          <stop offset="0%" stop-color="#ffbf00"></stop>
          <stop offset="100%" stop-color="#26b5f8"></stop>
        </linearGradient>
          </defs>
  </svg>
    <rect
      x="0"
      y="0"
      width="100%"
      height="100%"
      fill="transparent"
      fill-opacity="1"
    ></rect>
    <svg data-v-0dd9719b="" version="1.0" xmlns="http://www.w3.org/2000/svg" xmlns:xlink="http://www.w3.org/1999/xlink" width="100%" height="100%" viewBox="0 0 100 100" preserveAspectRatio="xMidYMid meet" color-interpolation-filters="sRGB" style="margin: auto;"> <rect data-v-0dd9719b="" x="0" y="0" width="100%" height="100%" fill="#ffffff" fill-opacity="1" class="background" style="display: none;"/> <rect data-v-0dd9719b="" x="0" y="0" width="100%" height="100%" fill="url(#watermark)" fill-opacity="1" class="watermarklayer" style="display: none;"/> <g data-v-0dd9719b="" fill="#333" class="iconsvg-imagesvg"><rect fill="#333" fill-opacity="0" stroke-width="2" x="0" y="0" width="100" height="100" class="image-rect"/> <svg viewBox="0 0 60 60" x="0" y="0" width="100" height="100" class="image-svg-svg bn" style="overflow: visible;"><g hollow-target="iconBnFill" mask="url(#f82904b4-26df-4908-8bd3-b61f387e52b1)"><g><svg fill="#000000" xmlns="http://www.w3.org/2000/svg" xmlns:xlink="http://www.w3.org/1999/xlink" xml:space="preserve" version="1.1" style="shape-rendering: geometricprecision; text-rendering: geometricprecision; overflow: visible;" viewBox="0 0 249 249" x="0" y="0" fill-rule="evenodd" clip-rule="evenodd" width="60" height="60" filtersec="colorsb4505080302" filter="url(#Wqosdq_S1PhPaUKdTfjqV)"><g transform="scale(1, 1) skewX(0)"><defs><filter id="Wqosdq_S1PhPaUKdTfjqV"><feColorMatrix type="matrix" values="0 0 0 0 0.19921875  0 0 0 0 0.19921875  0 0 0 0 0.19921875  0 0 0 1 0"/></filter></defs><g><path class="fil0" d="M125 0c68,0 124,56 124,125 0,68 -56,124 -124,124 -69,0 -125,-56 -125,-124 0,-69 56,-125 125,-125z"/></g></g></svg></g> <g filter="url(#colors3366164715)"><svg xmlns="http://www.w3.org/2000/svg" xmlns:xlink="http://www.w3.org/1999/xlink" viewBox="0 0 69.78125 69.134765625" width="45" height="45" x="7.5" y="7.5" class="image-svg-letter"><path transform="translate(-1.3749999999999996 59.4140625)" d="M37.97-59.34L37.97-59.34Q44.16-57.94 43.88-55.41L43.88-55.41Q41.91-52.31 41.34-47.81L41.34-47.81Q44.72-48.94 49.78-50.06L49.78-50.06Q55.41-50.91 55.13-48.38L55.13-48.38Q54.84-47.81 50.63-46.97L50.63-46.97Q45.56-46.13 41.06-45L41.06-45Q41.06-44.72 40.78-43.59L40.78-43.59Q40.22-40.50 39.66-39.38L39.66-39.38Q41.91-39.94 44.72-41.06L44.72-41.06Q47.25-41.91 48.09-41.91L48.09-41.91Q53.16-42.47 52.03-40.78L52.03-40.78Q50.63-39.38 40.22-37.13L40.22-37.13Q39.38-36.84 39.09-36.84L39.09-36.84Q38.53-33.75 37.69-32.06L37.69-32.06Q42.75-33.19 48.94-34.59L48.94-34.59Q53.72-36 55.41-35.72L55.41-35.72Q61.31-35.72 60.75-33.47L60.75-33.47Q60.47-32.63 53.72-32.06L53.72-32.06Q49.22-31.78 46.97-31.50L46.97-31.50Q54.84-22.50 68.91-19.13L68.91-19.13Q71.16-18.56 71.16-17.72L71.16-17.72Q71.16-16.88 69.19-16.59L69.19-16.59Q68.91-16.59 68.63-16.59L68.63-16.59Q60.75-15.19 57.94-16.59L57.94-16.59Q53.44-19.97 44.72-31.22L44.72-31.22Q37.41-29.81 37.13-29.81L37.13-29.81Q32.63-17.72 24.19-12.94L24.19-12.94Q21.38-11.25 20.81-11.53L20.81-11.53Q20.53-12.09 23.06-14.06L23.06-14.06Q29.53-19.41 33.75-29.25L33.75-29.25Q33.19-28.97 32.34-28.69L32.34-28.69Q28.69-27.56 27-27.84L27-27.84Q23.06-28.69 24.47-29.81L24.47-29.81Q33.75-31.22 34.31-31.22L34.31-31.22Q35.44-34.88 35.72-36.28L35.72-36.28Q28.97-36 31.22-37.97L31.22-37.97Q32.34-38.25 36.56-38.81L36.56-38.81Q36.84-39.09 37.13-42.19L37.13-42.19Q37.69-43.88 37.69-44.44L37.69-44.44Q34.03-43.31 30.94-43.59L30.94-43.59Q27.28-44.44 29.53-45.56L29.53-45.56Q31.50-46.13 37.97-46.97L37.97-46.97Q38.81-53.44 37.13-57.09L37.13-57.09Q36.28-57.94 36.56-58.78L36.56-58.78Q37.13-59.63 37.97-59.34ZM14.91-56.53L14.91-56.53Q20.81-54.56 19.97-52.88L19.97-52.88Q18.28-48.94 18-36.56L18-36.56Q27.84-38.81 27-36.56L27-36.56Q27-34.88 18-33.47L18-33.47Q17.44-28.97 17.72-25.59L17.72-25.59Q21.66-25.59 22.50-25.31L22.50-25.31Q24.75-23.91 25.03-21.38L25.03-21.38Q24.75-19.41 22.50-20.53L22.50-20.53Q21.09-21.09 19.41-23.06L19.41-23.06Q18.28-23.91 17.72-24.47L17.72-24.47Q17.72-19.69 17.72-12.66L17.72-12.66Q17.72-6.75 17.44-3.94L17.44-3.94Q17.16 3.38 15.75 4.50L15.75 4.50Q13.78 4.78 12.94-0.84L12.94-0.84Q12.94-1.97 13.50-4.78L13.50-4.78Q14.34-9.56 14.63-14.06L14.63-14.06Q15.19-21.38 15.47-25.88L15.47-25.88Q10.97-16.31 4.50-11.53L4.50-11.53Q1.69-9.56 1.41-9.84L1.41-9.84Q1.13-10.69 3.38-13.22L3.38-13.22Q11.53-21.94 14.63-32.63L14.63-32.63Q9.84-31.50 5.91-30.94L5.91-30.94Q1.41-31.50 2.81-32.91L2.81-32.91Q7.59-33.47 15.47-35.72L15.47-35.72Q15.19-47.25 14.91-49.50L14.91-49.50Q14.63-52.88 13.22-54.56L13.22-54.56Q12.38-55.69 12.94-56.25L12.94-56.25Q13.50-56.81 14.91-56.53ZM40.22-27L40.22-27Q44.44-25.88 44.44-24.75L44.44-24.75Q43.59-22.78 43.59-20.53L43.59-20.53Q50.63-22.22 50.91-21.09L50.91-21.09Q52.31-19.41 43.59-18L43.59-18L43.59-12.66Q44.44-12.94 46.41-13.22L46.41-13.22Q50.63-14.06 52.03-14.34L52.03-14.34Q58.22-15.19 57.66-11.81L57.66-11.81Q57.09-10.97 53.72-10.97L53.72-10.97Q48.38-10.97 43.59-10.13L43.59-10.13Q43.88-7.03 43.59 1.97L43.59 1.97Q43.59 2.53 43.59 2.53L43.59 2.53Q43.31 5.63 42.75 7.59L42.75 7.59Q41.63 10.69 40.78 9.28L40.78 9.28Q39.94 7.88 39.94 2.81L39.94 2.81Q39.94 1.13 40.22-6.19L40.22-6.19Q40.50-9.56 40.50-9.84L40.50-9.84Q33.47-8.44 31.22-7.88L31.22-7.88Q25.59-8.44 27.56-10.13L27.56-10.13Q30.66-10.13 40.50-12.09L40.50-12.09L40.50-17.44Q33.19-16.31 34.03-18.84L34.03-18.84Q37.69-19.41 40.50-19.97L40.50-19.97Q40.50-24.47 39.38-25.59L39.38-25.59Q38.53-26.16 38.81-26.72L38.81-26.72Q39.09-27.28 40.22-27Z"/></svg></g></g><mask id="f82904b4-26df-4908-8bd3-b61f387e52b1"><g fill="white"><svg xmlns="http://www.w3.org/2000/svg" xmlns:xlink="http://www.w3.org/1999/xlink" xml:space="preserve" version="1.1" style="shape-rendering: geometricprecision; text-rendering: geometricprecision; overflow: visible;" viewBox="0 0 249 249" x="0" y="0" fill-rule="evenodd" clip-rule="evenodd" width="60" height="60" filtersec="colorsb4505080302"><g transform="scale(1, 1) skewX(0)"><defs/><g><path d="M125 0c68,0 124,56 124,125 0,68 -56,124 -124,124 -69,0 -125,-56 -125,-124 0,-69 56,-125 125,-125z"/></g></g></svg></g> <g fill="black"><svg xmlns="http://www.w3.org/2000/svg" xmlns:xlink="http://www.w3.org/1999/xlink" viewBox="0 0 69.78125 69.134765625" width="45" height="45" x="7.5" y="7.5" class="image-svg-letter"><path transform="translate(-1.3749999999999996 59.4140625)" d="M37.97-59.34L37.97-59.34Q44.16-57.94 43.88-55.41L43.88-55.41Q41.91-52.31 41.34-47.81L41.34-47.81Q44.72-48.94 49.78-50.06L49.78-50.06Q55.41-50.91 55.13-48.38L55.13-48.38Q54.84-47.81 50.63-46.97L50.63-46.97Q45.56-46.13 41.06-45L41.06-45Q41.06-44.72 40.78-43.59L40.78-43.59Q40.22-40.50 39.66-39.38L39.66-39.38Q41.91-39.94 44.72-41.06L44.72-41.06Q47.25-41.91 48.09-41.91L48.09-41.91Q53.16-42.47 52.03-40.78L52.03-40.78Q50.63-39.38 40.22-37.13L40.22-37.13Q39.38-36.84 39.09-36.84L39.09-36.84Q38.53-33.75 37.69-32.06L37.69-32.06Q42.75-33.19 48.94-34.59L48.94-34.59Q53.72-36 55.41-35.72L55.41-35.72Q61.31-35.72 60.75-33.47L60.75-33.47Q60.47-32.63 53.72-32.06L53.72-32.06Q49.22-31.78 46.97-31.50L46.97-31.50Q54.84-22.50 68.91-19.13L68.91-19.13Q71.16-18.56 71.16-17.72L71.16-17.72Q71.16-16.88 69.19-16.59L69.19-16.59Q68.91-16.59 68.63-16.59L68.63-16.59Q60.75-15.19 57.94-16.59L57.94-16.59Q53.44-19.97 44.72-31.22L44.72-31.22Q37.41-29.81 37.13-29.81L37.13-29.81Q32.63-17.72 24.19-12.94L24.19-12.94Q21.38-11.25 20.81-11.53L20.81-11.53Q20.53-12.09 23.06-14.06L23.06-14.06Q29.53-19.41 33.75-29.25L33.75-29.25Q33.19-28.97 32.34-28.69L32.34-28.69Q28.69-27.56 27-27.84L27-27.84Q23.06-28.69 24.47-29.81L24.47-29.81Q33.75-31.22 34.31-31.22L34.31-31.22Q35.44-34.88 35.72-36.28L35.72-36.28Q28.97-36 31.22-37.97L31.22-37.97Q32.34-38.25 36.56-38.81L36.56-38.81Q36.84-39.09 37.13-42.19L37.13-42.19Q37.69-43.88 37.69-44.44L37.69-44.44Q34.03-43.31 30.94-43.59L30.94-43.59Q27.28-44.44 29.53-45.56L29.53-45.56Q31.50-46.13 37.97-46.97L37.97-46.97Q38.81-53.44 37.13-57.09L37.13-57.09Q36.28-57.94 36.56-58.78L36.56-58.78Q37.13-59.63 37.97-59.34ZM14.91-56.53L14.91-56.53Q20.81-54.56 19.97-52.88L19.97-52.88Q18.28-48.94 18-36.56L18-36.56Q27.84-38.81 27-36.56L27-36.56Q27-34.88 18-33.47L18-33.47Q17.44-28.97 17.72-25.59L17.72-25.59Q21.66-25.59 22.50-25.31L22.50-25.31Q24.75-23.91 25.03-21.38L25.03-21.38Q24.75-19.41 22.50-20.53L22.50-20.53Q21.09-21.09 19.41-23.06L19.41-23.06Q18.28-23.91 17.72-24.47L17.72-24.47Q17.72-19.69 17.72-12.66L17.72-12.66Q17.72-6.75 17.44-3.94L17.44-3.94Q17.16 3.38 15.75 4.50L15.75 4.50Q13.78 4.78 12.94-0.84L12.94-0.84Q12.94-1.97 13.50-4.78L13.50-4.78Q14.34-9.56 14.63-14.06L14.63-14.06Q15.19-21.38 15.47-25.88L15.47-25.88Q10.97-16.31 4.50-11.53L4.50-11.53Q1.69-9.56 1.41-9.84L1.41-9.84Q1.13-10.69 3.38-13.22L3.38-13.22Q11.53-21.94 14.63-32.63L14.63-32.63Q9.84-31.50 5.91-30.94L5.91-30.94Q1.41-31.50 2.81-32.91L2.81-32.91Q7.59-33.47 15.47-35.72L15.47-35.72Q15.19-47.25 14.91-49.50L14.91-49.50Q14.63-52.88 13.22-54.56L13.22-54.56Q12.38-55.69 12.94-56.25L12.94-56.25Q13.50-56.81 14.91-56.53ZM40.22-27L40.22-27Q44.44-25.88 44.44-24.75L44.44-24.75Q43.59-22.78 43.59-20.53L43.59-20.53Q50.63-22.22 50.91-21.09L50.91-21.09Q52.31-19.41 43.59-18L43.59-18L43.59-12.66Q44.44-12.94 46.41-13.22L46.41-13.22Q50.63-14.06 52.03-14.34L52.03-14.34Q58.22-15.19 57.66-11.81L57.66-11.81Q57.09-10.97 53.72-10.97L53.72-10.97Q48.38-10.97 43.59-10.13L43.59-10.13Q43.88-7.03 43.59 1.97L43.59 1.97Q43.59 2.53 43.59 2.53L43.59 2.53Q43.31 5.63 42.75 7.59L42.75 7.59Q41.63 10.69 40.78 9.28L40.78 9.28Q39.94 7.88 39.94 2.81L39.94 2.81Q39.94 1.13 40.22-6.19L40.22-6.19Q40.50-9.56 40.50-9.84L40.50-9.84Q33.47-8.44 31.22-7.88L31.22-7.88Q25.59-8.44 27.56-10.13L27.56-10.13Q30.66-10.13 40.50-12.09L40.50-12.09L40.50-17.44Q33.19-16.31 34.03-18.84L34.03-18.84Q37.69-19.41 40.50-19.97L40.50-19.97Q40.50-24.47 39.38-25.59L39.38-25.59Q38.53-26.16 38.81-26.72L38.81-26.72Q39.09-27.28 40.22-27Z"/></svg></g></mask></svg> <defs><filter id="colors3366164715"><feColorMatrix type="matrix" values="0 0 0 0 0.19921875  0 0 0 0 0.19921875  0 0 0 0 0.19921875  0 0 0 1 0" class="icon-fecolormatrix"/></filter> <filter id="colorsf3801170483"><feColorMatrix type="matrix" values="0 0 0 0 0.99609375  0 0 0 0 0.99609375  0 0 0 0 0.99609375  0 0 0 1 0" class="icon-fecolormatrix"/></filter> <filter id="colorsb4505080302"><feColorMatrix type="matrix" values="0 0 0 0 0  0 0 0 0 0  0 0 0 0 0  0 0 0 1 0" class="icon-fecolormatrix"/></filter></defs></g><defs v-gra="od"/></svg>
  </svg>