<svg xmlns="http://www.w3.org/2000/svg" viewBox="558.317 -43.032 751.72 749.714">
  <path style="fill: #000000; stroke: rgb(0, 0, 0);" d="M 933.178 -26.485 L 1018.593 98.309 L 933.178 54.492 L 1035.786 177.623 L 921.531 128.259 L 1020.811 291.324 L 912.656 251.944 L 994.188 380.066 L 897.126 344.015 L 939.834 488.526 L 867.73 438.054 L 896.572 565.621 L 859.411 532.342 L 864.957 659.91 C 864.957 664.915 935.951 603.943 935.951 594.462 C 931.56 603.528 964.272 561.256 1000.844 485.753 C 994.923 505.886 1035.172 431.936 1056.863 358.185 C 1063.117 360.27 1081.234 249.988 1079.048 249.26 C 1088.31 251.245 1091.556 121.273 1080.158 118.831 C 1090.343 117.812 1045.342 44.662 1041.333 45.063 C 1047.459 45.063 994.345 -1.527 988.642 -1.527 C 991.734 -4.619 934.325 -27.632 933.178 -26.485 Z"></path>
</svg>