<svg xmlns="http://www.w3.org/2000/svg" viewBox="0 0 500 500">
  <path style="fill:#000; stroke: rgb(0, 0, 0);" d="M 359.293 28.619 L 319.476 56.225 C 318.951 55.202 279.931 100.046 280.427 101.011 C 278.428 98.399 230.827 165.4 231.805 166.669 C 229.818 162.803 187.984 258.106 190.08 262.19 C 184.88 259.296 172.512 318.077 174.004 318.904 C 169.788 318.904 157.994 404.724 158.308 404.724 C 157.559 404.724 155.807 443.528 156.007 443.528 C 156.007 443.528 159.455 449.499 159.836 448.753 C 160.222 448.006 196.204 410.694 196.204 410.694 C 196.59 411.296 263.903 329.852 259.754 323.38 C 260.473 324.425 312.32 221.097 311.818 216.672 C 311.323 212.253 347.42 125.772 342.063 121.151 C 342.202 121.238 357.276 57.901 354.691 56.225 C 357.07 58.546 364.444 34.387 360.815 30.861 L 359.293 28.619 Z"></path>
</svg>